<svg width="120" height="113" viewBox="0 0 120 113" fill="none" xmlns="http://www.w3.org/2000/svg">
<path d="M2.43383 101.837C2.43383 102.565 2.59608 103.204 2.9206 103.755C3.25494 104.306 3.68762 104.733 4.21864 105.038C4.75949 105.333 5.34459 105.481 5.97395 105.481C6.46563 105.481 6.90814 105.417 7.30149 105.289C7.69483 105.161 8.04885 104.989 8.36352 104.773C8.68803 104.547 8.96829 104.296 9.2043 104.02V106.085C8.77162 106.439 8.30452 106.71 7.80301 106.897C7.30149 107.084 6.67213 107.177 5.91494 107.177C5.15775 107.177 4.44973 107.049 3.79087 106.793C3.14185 106.538 2.57642 106.169 2.09457 105.687C1.61272 105.205 1.23412 104.64 0.958781 103.991C0.693273 103.332 0.560518 102.614 0.560518 101.837C0.560518 101.06 0.693273 100.348 0.958781 99.6985C1.23412 99.0397 1.61272 98.4693 2.09457 97.9875C2.57642 97.5056 3.14185 97.1368 3.79087 96.8812C4.44973 96.6255 5.15775 96.4977 5.91494 96.4977C6.67213 96.4977 7.30149 96.5911 7.80301 96.7779C8.30452 96.9648 8.77162 97.2352 9.2043 97.5892V99.6543C8.96829 99.3789 8.68803 99.1331 8.36352 98.9167C8.04885 98.6906 7.69483 98.5136 7.30149 98.3857C6.90814 98.2579 6.46563 98.194 5.97395 98.194C5.34459 98.194 4.75949 98.3464 4.21864 98.6512C3.68762 98.9462 3.25494 99.3691 2.9206 99.9198C2.59608 100.461 2.43383 101.1 2.43383 101.837ZM15.7714 96.6747H17.5267V107H15.7714V96.6747ZM24.9343 103.681C25.1605 104.074 25.4014 104.424 25.6571 104.728C25.9226 105.023 26.2127 105.255 26.5274 105.422C26.842 105.579 27.196 105.658 27.5894 105.658C28.0614 105.658 28.4449 105.53 28.7399 105.274C29.0349 105.019 29.1824 104.689 29.1824 104.286C29.1824 103.902 29.089 103.598 28.9022 103.371C28.7153 103.135 28.4548 102.939 28.1204 102.781C27.7959 102.614 27.4173 102.452 26.9846 102.295C26.7289 102.206 26.4438 102.088 26.1291 101.941C25.8144 101.783 25.5145 101.591 25.2293 101.365C24.9441 101.129 24.7081 100.844 24.5213 100.51C24.3345 100.166 24.241 99.7526 24.241 99.2707C24.241 98.7201 24.3836 98.2382 24.6688 97.8252C24.954 97.4024 25.3375 97.0778 25.8193 96.8517C26.311 96.6157 26.8666 96.4977 27.4861 96.4977C28.0958 96.4977 28.6268 96.6058 29.0792 96.8222C29.5315 97.0385 29.9101 97.3138 30.215 97.6482C30.5297 97.9825 30.7755 98.3316 30.9525 98.6955L29.5365 99.492C29.4086 99.2363 29.2464 99.0003 29.0497 98.784C28.853 98.5578 28.6219 98.3808 28.3564 98.253C28.1007 98.1153 27.8008 98.0465 27.4566 98.0465C26.9748 98.0465 26.6208 98.1595 26.3946 98.3857C26.1684 98.6021 26.0553 98.8577 26.0553 99.1527C26.0553 99.4183 26.134 99.6592 26.2914 99.8755C26.4585 100.082 26.7142 100.279 27.0584 100.466C27.4026 100.652 27.85 100.844 28.4007 101.041C28.7055 101.149 29.0104 101.287 29.3152 101.454C29.6299 101.621 29.9151 101.832 30.1707 102.088C30.4264 102.334 30.628 102.624 30.7755 102.958C30.9328 103.293 31.0115 103.686 31.0115 104.138C31.0115 104.62 30.9181 105.053 30.7312 105.436C30.5444 105.82 30.2887 106.144 29.9642 106.41C29.6397 106.666 29.2709 106.862 28.8579 107C28.4548 107.148 28.0319 107.221 27.5894 107.221C26.9797 107.221 26.4143 107.103 25.8931 106.867C25.3817 106.621 24.9343 106.297 24.5508 105.894C24.1673 105.491 23.8624 105.053 23.6363 104.581L24.9343 103.681ZM36.1433 104.212V102.781H39.1671V104.212H36.1433ZM46.0504 104.345L46.3749 102.87H51.1688L51.5081 104.345H46.0504ZM48.7498 99.5953L47.1272 103.386L47.0977 103.77L45.6669 107H43.7051L48.7498 96.0994L53.7944 107H51.8326L50.4313 103.858L50.3871 103.43L48.7498 99.5953ZM59.4178 96.6747H61.1584V105.436H65.259V107H59.4178V96.6747ZM70.8679 96.6747H72.6084V103.534C72.6084 104.173 72.7756 104.689 73.11 105.082C73.4541 105.466 73.9606 105.658 74.6293 105.658C75.2881 105.658 75.7896 105.466 76.1338 105.082C76.478 104.689 76.6501 104.173 76.6501 103.534V96.6747H78.3906V103.607C78.3906 104.178 78.2972 104.689 78.1104 105.141C77.9334 105.584 77.6777 105.963 77.3433 106.277C77.009 106.592 76.6107 106.833 76.1486 107C75.6864 107.167 75.1799 107.251 74.6293 107.251C74.0786 107.251 73.5721 107.167 73.11 107C72.6478 106.833 72.2446 106.592 71.9004 106.277C71.5661 105.963 71.3104 105.584 71.1334 105.141C70.9564 104.689 70.8679 104.178 70.8679 103.607V96.6747ZM92.5814 96.6747H94.2925V107.516L86.755 100.067V107H85.0439V96.1584L92.5814 103.607V96.6747ZM102.258 101.837C102.258 102.545 102.406 103.18 102.701 103.74C103.006 104.291 103.423 104.724 103.954 105.038C104.485 105.353 105.09 105.51 105.769 105.51C106.457 105.51 107.062 105.353 107.583 105.038C108.114 104.724 108.527 104.291 108.822 103.74C109.127 103.18 109.279 102.545 109.279 101.837C109.279 101.129 109.132 100.5 108.837 99.9493C108.542 99.3888 108.129 98.9512 107.598 98.6365C107.077 98.3218 106.467 98.1645 105.769 98.1645C105.09 98.1645 104.485 98.3218 103.954 98.6365C103.423 98.9512 103.006 99.3888 102.701 99.9493C102.406 100.5 102.258 101.129 102.258 101.837ZM100.414 101.837C100.414 101.06 100.547 100.348 100.813 99.6985C101.078 99.0495 101.452 98.489 101.934 98.017C102.425 97.5351 102.996 97.1614 103.645 96.8959C104.304 96.6304 105.012 96.4977 105.769 96.4977C106.546 96.4977 107.259 96.6304 107.908 96.8959C108.557 97.1614 109.122 97.5351 109.604 98.017C110.096 98.489 110.474 99.0495 110.74 99.6985C111.005 100.348 111.138 101.06 111.138 101.837C111.138 102.604 111.005 103.317 110.74 103.976C110.474 104.635 110.101 105.205 109.619 105.687C109.137 106.169 108.566 106.548 107.908 106.823C107.259 107.089 106.546 107.221 105.769 107.221C105.002 107.221 104.289 107.089 103.63 106.823C102.971 106.548 102.401 106.169 101.919 105.687C101.447 105.205 101.078 104.635 100.813 103.976C100.547 103.317 100.414 102.604 100.414 101.837Z" fill="#CBCBCB"/>
<path d="M88.7639 17.8586C88.8224 17.7947 88.9248 17.8018 88.9727 17.874C94.7481 26.5813 98.5621 39.2302 96.5699 49.3049C94.5669 59.4341 89.1256 67.7054 80.3639 73.8308C71.6022 79.9562 60.7117 82.7178 49.8811 81.5607C39.0504 80.4036 29.0822 75.4136 21.9796 67.5933C14.8771 59.7731 11.1667 49.7023 11.594 39.4048C12.0213 29.1072 16.5547 19.3461 24.2831 12.083C32.0115 4.81992 42.3622 0.570371 53.2551 0.229331C64.0998 -0.110202 74.6818 3.4268 82.8934 10.1324C82.9527 10.1808 82.9589 10.2693 82.9071 10.3257L69.4614 24.9728C69.4134 25.025 69.333 25.0306 69.2779 24.9859C65.0263 21.5311 59.5572 19.7097 53.9528 19.8852C48.3052 20.062 42.9387 22.2534 38.9317 26.0191C34.9248 29.7848 32.5744 34.8456 32.3528 40.1846C32.1313 45.5235 34.055 50.7449 37.7374 54.7995C41.4199 58.854 46.5881 61.4412 52.2034 62.0411C57.8188 62.641 63.4652 61.2092 68.0078 58.0334C72.5505 54.8576 75.0234 51.3747 76.0619 46.123C77.0949 40.8993 77.3408 37.6589 75.282 32.7039C75.262 32.6558 75.2712 32.5995 75.3064 32.5611L82.4899 24.7131L88.7639 17.8586Z" fill="#717171"/>
</svg>
