<svg width="143" height="54" viewBox="0 0 143 54" fill="none" xmlns="http://www.w3.org/2000/svg">
<line x1="140.505" y1="52.554" x2="60.3131" y2="52.554" stroke="white" stroke-width="1.108"/>
<path d="M101.56 50V48.2308C101.512 48.4159 101.351 48.6697 101.077 48.992C100.809 49.3143 100.435 49.6057 99.9554 49.8663C99.4823 50.12 98.9199 50.2469 98.2685 50.2469C97.5073 50.2469 96.8044 50.072 96.1599 49.7223C95.5221 49.3657 95.0078 48.8548 94.6169 48.1897C94.2329 47.5176 94.0409 46.7153 94.0409 45.7827C94.0409 44.8501 94.2329 44.0512 94.6169 43.3861C95.0078 42.714 95.5221 42.1997 96.1599 41.8431C96.8044 41.4866 97.5073 41.3083 98.2685 41.3083C98.9199 41.3083 99.4823 41.4317 99.9554 41.6786C100.429 41.9186 100.802 42.1963 101.077 42.5117C101.358 42.8272 101.515 43.0912 101.55 43.3038V41.5551H102.702V50H101.56ZM95.2032 45.7827C95.2032 46.4959 95.3575 47.1096 95.6661 47.6239C95.9747 48.1382 96.3724 48.5325 96.8593 48.8068C97.353 49.0811 97.8708 49.2183 98.4125 49.2183C99.0091 49.2183 99.5405 49.0777 100.007 48.7965C100.473 48.5154 100.84 48.1176 101.107 47.6033C101.382 47.089 101.519 46.4822 101.519 45.7827C101.519 45.0833 101.382 44.4764 101.107 43.9621C100.84 43.4478 100.473 43.05 100.007 42.7689C99.5405 42.4809 99.0091 42.3369 98.4125 42.3369C97.8708 42.3369 97.353 42.4775 96.8593 42.7586C96.3724 43.0329 95.9747 43.4272 95.6661 43.9415C95.3575 44.4558 95.2032 45.0695 95.2032 45.7827ZM106.571 50H105.378V35.8464H106.571V50ZM110.485 45.9679C110.485 46.9553 110.701 47.7405 111.133 48.3234C111.572 48.8994 112.23 49.1874 113.108 49.1874C113.992 49.1874 114.651 48.8994 115.083 48.3234C115.515 47.7405 115.731 46.9553 115.731 45.9679V41.5551H116.903V46.1736C116.903 46.9622 116.756 47.6651 116.461 48.2822C116.166 48.8925 115.737 49.3725 115.175 49.7223C114.613 50.072 113.924 50.2469 113.108 50.2469C112.298 50.2469 111.613 50.072 111.05 49.7223C110.488 49.3725 110.059 48.8925 109.765 48.2822C109.47 47.6651 109.322 46.9622 109.322 46.1736V41.5551H110.485V45.9679ZM123.797 41.3083C124.332 41.3083 124.853 41.4248 125.361 41.658C125.868 41.8843 126.286 42.2477 126.616 42.7483C126.945 43.2421 127.109 43.8832 127.109 44.6718V50H125.916V44.9495C125.916 44.0101 125.697 43.3346 125.258 42.9232C124.819 42.5049 124.257 42.2957 123.571 42.2957C123.118 42.2957 122.679 42.426 122.254 42.6866C121.836 42.9472 121.49 43.3038 121.215 43.7564C120.948 44.2089 120.814 44.7164 120.814 45.2787V50H119.642V41.5551H120.814V43.1803C120.862 42.9403 121.023 42.6763 121.298 42.3883C121.579 42.0934 121.935 41.8397 122.367 41.6271C122.806 41.4146 123.283 41.3083 123.797 41.3083ZM133.429 50.2469C132.585 50.2469 131.835 50.0514 131.176 49.6606C130.525 49.2628 130.01 48.728 129.633 48.0559C129.263 47.3839 129.078 46.633 129.078 45.8033C129.078 44.9735 129.263 44.2192 129.633 43.5403C130.01 42.8546 130.525 42.3129 131.176 41.9151C131.835 41.5106 132.585 41.3083 133.429 41.3083C134.272 41.3083 135.016 41.5106 135.661 41.9151C136.312 42.3129 136.823 42.8546 137.194 43.5403C137.564 44.2192 137.749 44.9735 137.749 45.8033C137.749 46.633 137.564 47.3839 137.194 48.0559C136.823 48.728 136.312 49.2628 135.661 49.6606C135.016 50.0514 134.272 50.2469 133.429 50.2469ZM133.429 49.1874C134.067 49.1874 134.622 49.04 135.095 48.7451C135.575 48.4502 135.946 48.0456 136.206 47.5313C136.474 47.017 136.607 46.441 136.607 45.8033C136.607 45.1587 136.474 44.5792 136.206 44.0649C135.946 43.5438 135.575 43.1323 135.095 42.8306C134.622 42.522 134.067 42.3677 133.429 42.3677C132.784 42.3677 132.222 42.522 131.742 42.8306C131.262 43.1323 130.888 43.5438 130.621 44.0649C130.353 44.5792 130.22 45.1587 130.22 45.8033C130.22 46.441 130.353 47.017 130.621 47.5313C130.888 48.0456 131.262 48.4502 131.742 48.7451C132.222 49.04 132.784 49.1874 133.429 49.1874Z" fill="white"/>
<path d="M60.7828 41.5724C60.7828 43.0011 61.0878 44.2612 61.6978 45.3528C62.3078 46.4444 63.1265 47.3032 64.1539 47.9292C65.1812 48.5553 66.329 48.8683 67.5971 48.8683C68.3998 48.8683 69.1301 48.78 69.7883 48.6034C70.4465 48.4269 71.0404 48.162 71.5701 47.8088C72.1159 47.4557 72.5975 47.0383 73.0149 46.5567V48.3386C72.3085 48.9646 71.538 49.4382 70.7033 49.7592C69.8686 50.0642 68.8332 50.2167 67.5971 50.2167C66.4253 50.2167 65.3337 50.008 64.3224 49.5907C63.3272 49.1572 62.4603 48.5553 61.7219 47.7848C60.9835 47.0142 60.4056 46.0992 59.9882 45.0398C59.5709 43.9803 59.3622 42.8245 59.3622 41.5724C59.3622 40.3203 59.5709 39.1646 59.9882 38.1051C60.4056 37.0456 60.9835 36.1306 61.7219 35.3601C62.4603 34.5896 63.3272 33.9957 64.3224 33.5783C65.3337 33.1449 66.4253 32.9282 67.5971 32.9282C68.8332 32.9282 69.8686 33.0887 70.7033 33.4097C71.538 33.7147 72.3085 34.1803 73.0149 34.8063V36.5641C72.5975 36.0825 72.1159 35.6731 71.5701 35.336C71.0243 34.9829 70.4224 34.718 69.7642 34.5414C69.1061 34.3649 68.3837 34.2766 67.5971 34.2766C66.329 34.2766 65.1812 34.5896 64.1539 35.2156C63.1265 35.8256 62.3078 36.6764 61.6978 37.768C61.0878 38.8596 60.7828 40.1277 60.7828 41.5724ZM76.7608 33.1449H78.0851V50H76.7608V33.1449ZM82.1966 45.1361C82.4695 45.8424 82.7985 46.4845 83.1838 47.0624C83.5851 47.6403 84.0747 48.1058 84.6526 48.459C85.2305 48.7961 85.9207 48.9646 86.7234 48.9646C87.8149 48.9646 88.6657 48.6676 89.2757 48.0737C89.9018 47.4637 90.2148 46.6932 90.2148 45.7621C90.2148 44.9435 90.0302 44.2853 89.661 43.7877C89.2918 43.2901 88.8102 42.8887 88.2163 42.5837C87.6384 42.2627 87.0284 41.9818 86.3863 41.741C85.9047 41.5644 85.399 41.3557 84.8693 41.1149C84.3556 40.8581 83.8741 40.5531 83.4246 40.1999C82.9751 39.8307 82.6059 39.3893 82.317 38.8756C82.0441 38.3619 81.9076 37.7439 81.9076 37.0216C81.9076 36.2189 82.1003 35.5126 82.4855 34.9026C82.8708 34.2766 83.4085 33.795 84.0988 33.4579C84.789 33.1047 85.5676 32.9282 86.4344 32.9282C87.3334 32.9282 88.1039 33.0967 88.746 33.4338C89.4041 33.7709 89.9499 34.1963 90.3833 34.71C90.8168 35.2237 91.1458 35.7534 91.3706 36.2992L90.2148 36.9493C90.0382 36.5159 89.7814 36.0905 89.4443 35.6731C89.1232 35.2558 88.7139 34.9106 88.2163 34.6378C87.7186 34.3488 87.1006 34.2043 86.3622 34.2043C85.383 34.2043 84.6285 34.4612 84.0988 34.9749C83.5691 35.4725 83.3042 36.0985 83.3042 36.853C83.3042 37.479 83.4567 38.0168 83.7617 38.4663C84.0667 38.9157 84.5242 39.3251 85.1342 39.6943C85.7442 40.0474 86.4986 40.3846 87.3976 40.7056C87.8631 40.8822 88.3447 41.0989 88.8423 41.3557C89.3399 41.6126 89.7894 41.9336 90.1907 42.3189C90.6081 42.7041 90.9452 43.1697 91.202 43.7154C91.4589 44.2452 91.5873 44.8793 91.5873 45.6177C91.5873 46.3079 91.4589 46.934 91.202 47.4958C90.9612 48.0576 90.6161 48.5472 90.1666 48.9646C89.7332 49.3659 89.2195 49.6789 88.6256 49.9037C88.0317 50.1124 87.3896 50.2167 86.6993 50.2167C85.7201 50.2167 84.8613 50.0161 84.1229 49.6147C83.3845 49.2134 82.7664 48.6757 82.2688 48.0015C81.7712 47.3273 81.3859 46.5969 81.113 45.8103L82.1966 45.1361Z" fill="white"/>
<path d="M50.0522 12.08C50.2948 11.815 50.7215 11.8471 50.9138 12.1506C54.4955 17.8032 56.8033 25.7624 55.5422 32.1395C54.2366 38.7422 50.6897 44.1339 44.9784 48.1267C39.267 52.1195 32.168 53.9197 25.108 53.1655C18.048 52.4112 11.5502 49.1584 6.92047 44.0608C2.29069 38.9632 -0.127959 32.3985 0.150586 25.6861C0.42913 18.9736 3.38422 12.6108 8.422 7.87633C13.4598 3.14187 20.2069 0.371797 27.3074 0.14949C34.2083 -0.0665691 40.9461 2.12548 46.2425 6.29631C46.4922 6.49294 46.5176 6.85998 46.3027 7.09413L38.1705 15.9528C37.9715 16.1696 37.6385 16.192 37.4046 16.0136C34.6859 13.9393 31.2646 12.8525 27.7622 12.9622C24.0808 13.0774 20.5826 14.5059 17.9707 16.9606C15.3588 19.4153 13.8267 22.7142 13.6822 26.1944C13.5378 29.6746 14.7918 33.0782 17.1922 35.7211C19.5926 38.3641 22.9615 40.0505 26.6219 40.4416C30.2823 40.8326 33.9629 39.8993 36.924 37.8291C39.8852 35.759 41.4971 33.4887 42.1741 30.0654C42.828 26.7584 42.9981 24.6707 41.7779 21.5944C41.6983 21.3937 41.7374 21.164 41.8832 21.0047L46.3642 16.1093L50.0522 12.08Z" fill="white"/>
</svg>
